<?xml version="1.0" encoding="utf-8"?>
<!-- Generator: Adobe Illustrator 24.0.1, SVG Export Plug-In . SVG Version: 6.00 Build 0)  -->
<svg version="1.1" xmlns="http://www.w3.org/2000/svg" xmlns:xlink="http://www.w3.org/1999/xlink" x="0px" y="0px" width="957.4px"
	 height="219.3px" viewBox="0 0 957.4 219.3" style="enable-background:new 0 0 957.4 219.3;" xml:space="preserve">
<style type="text/css">
	.st0{display:none;}
	.st1{fill:#F9AB00;}
	.st2{fill:#FFFFFF;}
</style>
<g id="_x3C_Background_x3E__xA0_0_xA0_Image_00000173147255799753872140000004491444509742245275_" class="st0">
	
		<image style="display:inline;overflow:visible;" width="1024" height="256" id="_x3C_Background_x3E__xA0_0_xA0_Image" xlink:href="30482BC803D233F4.png"  transform="matrix(0.935 0 0 0.8565 0 0)">
	</image>
</g>
<g id="Group_1_00000085251998080301072240000008432580987522208919_">
	<g id="Layer_4_copy_xA0_Image_00000033329327134710062380000017682205586542490806_" class="st0">
	</g>
	<g id="Layer_4_xA0_Image_00000009578245080298131670000016131144410531773610_" class="st0">
	</g>
	<g id="ANI" class="st0">
	</g>
	<g id="AGE">
		<polygon class="st1" points="455.8,76.2 455.8,112.1 511.9,147.1 453.9,183.3 395.9,147.1 366.5,164.9 453.6,219.3 453.9,219.1 
			454.2,219.3 541.1,165 541.2,165 541.2,129.1 		"/>
		<polygon class="st2" points="453.5,147.5 453.5,111.6 397.4,76.6 455.4,40.4 513.4,76.6 542.7,58.8 455.7,4.4 455.4,4.6 
			455.1,4.4 368.2,58.7 368,58.6 368,94.5 		"/>
		<g>
			<path class="st1" d="M0,184.5L43.9,40.3h46.1L134,184.5H93.6l-16.4-70.1c-1.8-7-3.5-14.5-5.3-22.6c-1.8-8.1-3.5-15.8-5.3-23.1
				h-0.9c-1.5,7.2-3.1,14.9-4.9,23.1c-1.8,8.1-3.5,15.7-5.3,22.6L39,184.5H0z M31.5,153.9v-29.5h70.6v29.5H31.5z"/>
			<path class="st1" d="M147.8,184.5V40.3h39l31.9,64.3c2.5,4.9,4.9,10.1,7.1,15.6c2.2,5.5,4.4,11.1,6.7,16.8h0.9
				c-0.9-7.8-1.9-16.8-3.1-26.7c-1.2-10-1.8-19.4-1.8-28.3V40.3h36.4v144.2h-39l-31.9-64.3c-2.4-4.9-4.7-10.1-7-15.8
				c-2.3-5.6-4.5-11.2-6.8-16.6h-0.9c0.9,8.1,1.9,17.1,3.1,27c1.2,9.8,1.8,19.2,1.8,28.1v41.7H147.8z"/>
			<path class="st1" d="M296.9,184.5V40.3H335v144.2H296.9z"/>
		</g>
		<g>
			<path class="st2" d="M573.2,183.3l43.9-144.2h46.1l43.9,144.2h-40.4l-16.4-70.1c-1.8-7-3.5-14.5-5.3-22.6
				c-1.8-8.1-3.5-15.8-5.3-23.1h-0.9c-1.5,7.2-3.1,14.9-4.9,23.1c-1.8,8.1-3.6,15.7-5.3,22.6l-16.4,70.1H573.2z M604.7,152.7v-29.5
				h70.6v29.5H604.7z"/>
			<path class="st2" d="M785.3,186c-13.5,0-25.7-2.7-36.7-8.1c-11-5.4-19.8-13.6-26.3-24.5c-6.5-10.9-9.8-24.6-9.8-41
				c0-12.1,1.9-22.9,5.8-32.3c3.8-9.4,9.1-17.3,15.8-23.9c6.7-6.5,14.3-11.4,23-14.8c8.7-3.3,17.8-5,27.4-5
				c10.7,0,19.9,1.9,27.7,5.5c7.8,3.7,14.3,8.2,19.3,13.5l-20,23.1c-3.5-3.1-7.3-5.4-11.2-7c-3.9-1.6-8.8-2.3-14.5-2.3
				c-6.5,0-12.4,1.7-17.5,5c-5.2,3.3-9.2,8.1-12.2,14.3c-3,6.2-4.4,13.7-4.4,22.4c0,9,1.4,16.7,4.1,23c2.7,6.3,6.9,11.1,12.4,14.3
				c5.5,3.3,12.6,4.9,21.2,4.9c2.1,0,4.1-0.2,6.1-0.7c2-0.4,3.7-1.1,5-2v-20h-21.3V99.5h55v68.8c-5,4.9-11.9,9.1-20.5,12.5
				C804.9,184.3,795.5,186,785.3,186z"/>
			<path class="st2" d="M862,183.3V39.1h93.2v31.9h-55v22.6h47v31.9h-47v25.7h57.2v31.9H862z"/>
		</g>
	</g>
</g>
</svg>
